Coordinates
version=1
nRows=17
nColumns=40
inDegrees=yes

Units are S.I. units (second, meters, Newtons, ...)
Angles are in degrees.

endheader
time	pelvis_tilt	pelvis_list	pelvis_rotation	pelvis_tx	pelvis_ty	pelvis_tz	hip_flexion_r	hip_adduction_r	hip_rotation_r	knee_angle_r	knee_angle_r_beta	ankle_angle_r	subtalar_angle_r	mtp_angle_r	hip_flexion_l	hip_adduction_l	hip_rotation_l	knee_angle_l	knee_angle_l_beta	ankle_angle_l	subtalar_angle_l	mtp_angle_l	lumbar_extension	lumbar_bending	lumbar_rotation	arm_flex_r	arm_add_r	arm_rot_r	elbow_flex_r	pro_sup_r	wrist_flex_r	wrist_dev_r	arm_flex_l	arm_add_l	arm_rot_l	elbow_flex_l	pro_sup_l	wrist_flex_l	wrist_dev_l
      0.00000000	     -2.36264190	      0.86761518	     -7.94056028	     -0.82721013	      0.95584404	      1.02081140	     -4.22242856	     -1.82596809	    -21.83869231	    -12.35806770	     -0.21568897	      9.47159016	      4.89300242	    -13.84390376	     25.73268262	      3.72662402	     19.91473268	    -12.44662101	     -0.21723452	     -2.58654008	      0.81366869	      1.48428334	     -3.22580973	     -3.61120948	      9.52022447	     15.80021354	    -16.60387907	    -11.49553662	     27.94450712	     89.95437384	      0.00000000	      0.00000000	    -15.95863974	     14.45137814	     14.43301507	      6.06929319	     89.95437384	      0.00000000	      0.00000000
      0.01000000	     -2.46528405	      0.82404468	     -8.09083430	     -0.81848333	      0.95440869	      1.02138446	     -4.73880759	     -1.80531561	    -21.77003457	    -12.27852102	     -0.21430062	      9.77192907	      4.97620558	    -13.92029476	     26.06817956	      3.80476605	     19.81546857	    -11.20133638	     -0.19550020	     -2.80700288	      0.03145952	      1.54410721	     -3.15218143	     -3.56922725	      9.73220722	     16.17577200	    -16.62612423	    -11.59850211	     28.31283116	     89.95437384	      0.00000000	      0.00000000	    -16.16191609	     14.37861149	     14.38352547	      5.71691383	     89.95437384	      0.00000000	      0.00000000
      0.02000000	     -2.19421373	      1.03063040	     -8.38787198	     -0.80903970	      0.95352224	      1.02197698	     -5.63507467	     -2.20755478	    -21.91766668	    -12.27710812	     -0.21427596	      9.97256948	      5.17109003	    -14.04807575	     25.84793151	      3.68340722	     20.47564297	     -9.96954773	     -0.17400143	     -3.22938118	     -1.09066499	      1.61486316	     -3.40964774	     -3.86459311	     10.08098436	     16.41965117	    -16.54918879	    -12.04568420	     28.83794289	     89.95437384	      0.00000000	      0.00000000	    -16.36251187	     14.33703482	     14.18389660	      5.46489243	     89.95437384	      0.00000000	      0.00000000
      0.03000000	     -2.34515141	      0.97183862	     -8.55032578	     -0.79980959	      0.95190438	      1.02243575	     -6.08130467	     -2.22093654	    -22.03032877	    -12.31934693	     -0.21501317	     10.09203942	      5.13451576	    -14.01521549	     26.32649691	      3.87897351	     20.63007992	     -9.51272656	     -0.16602840	     -3.02033545	     -1.17074272	      1.58067668	     -3.22793061	     -3.80675771	     10.19532163	     16.72448203	    -16.49871896	    -12.08730545	     29.13041881	     89.95437384	      0.00000000	      0.00000000	    -16.67839621	     14.21996898	     14.12335151	      5.31822604	     89.95437384	      0.00000000	      0.00000000
      0.04000000	     -2.16173822	      1.09040874	     -8.86446207	     -0.79022448	      0.95090751	      1.02296125	     -6.86039231	     -2.54042959	    -21.95970662	    -12.37712675	     -0.21602161	     10.28932611	      5.54150832	    -14.12957148	     26.04878941	      3.81041395	     20.68122825	     -8.53138337	     -0.14890073	     -3.09489877	     -1.76735950	      1.58413100	     -3.38484636	     -3.99477788	     10.56038827	     16.78338765	    -16.43306221	    -12.33946241	     29.75051675	     89.95437384	      0.00000000	      0.00000000	    -16.82620552	     14.15309331	     13.84685153	      5.15900011	     89.95437384	      0.00000000	      0.00000000
      0.05000000	     -2.23579054	      1.07750592	     -9.04107399	     -0.78054927	      0.94945004	      1.02320512	     -7.36628916	     -2.66827485	    -22.06804346	    -12.49224193	     -0.21803075	     10.37814016	      5.53242422	    -14.07105890	     26.32122337	      3.95982277	     20.76354217	     -8.40860169	     -0.14675778	     -3.01414564	     -1.68038107	      1.56826857	     -3.25289248	     -3.99945851	     10.67290651	     16.94559995	    -16.31788555	    -12.44098355	     30.03720979	     89.95437384	      0.00000000	      0.00000000	    -17.04614586	     14.01588225	     13.72711188	      5.07019979	     89.95437384	      0.00000000	      0.00000000
      0.06000000	     -2.34574857	      1.09954081	     -9.24636020	     -0.77082618	      0.94795307	      1.02339663	     -7.72939582	     -2.87575617	    -21.97374952	    -12.81402313	     -0.22364689	     10.28658168	      5.40801297	    -13.89189891	     26.63508582	      4.10754166	     20.57675939	     -8.62317462	     -0.15050279	     -3.00447658	     -1.58112807	      1.54987407	     -3.07039939	     -4.03961393	     10.75442343	     17.03869337	    -16.15308901	    -12.46189729	     30.40946419	     89.95437384	      0.00000000	      0.00000000	    -17.36540510	     13.84429479	     13.64006792	      5.20559746	     89.95437384	      0.00000000	      0.00000000
      0.07000000	     -1.78290038	      1.59449761	     -9.47220091	     -0.76019309	      0.94761653	      1.02303729	     -8.84286626	     -3.96900384	    -22.99855561	    -13.12735988	     -0.22911565	     10.64393119	      7.72219227	    -14.58937690	     25.84649688	      3.45342932	     20.50503817	     -8.29966692	     -0.14485651	     -2.88809963	     -0.28614857	      1.63842577	     -3.50557382	     -4.68216007	     11.15497959	     16.84813781	    -15.89216407	    -13.55184680	     30.96942523	     89.95437384	      0.00000000	      0.00000000	    -17.26793202	     13.88556244	     11.98035205	      5.02156430	     89.95437384	      0.00000000	      0.00000000
      0.08000000	     -1.93568097	      1.61969673	     -9.61583919	     -0.75009301	      0.94616861	      1.02271953	     -9.11509623	     -4.22815634	    -22.75000347	    -13.58027028	     -0.23702043	     10.45877323	      7.46195480	    -14.33181719	     26.08465880	      3.55155865	     20.19058671	     -8.78808770	     -0.15338107	     -2.93014681	     -0.19377469	      1.61792940	     -3.24445199	     -4.69066646	     11.18309914	     16.78090437	    -15.74669295	    -13.51816282	     31.30855435	     89.95437384	      0.00000000	      0.00000000	    -17.55885196	     13.68836746	     11.92379607	      5.31707000	     89.95437384	      0.00000000	      0.00000000
      0.09000000	     -1.75150757	      1.77036935	     -9.79988981	     -0.73952178	      0.94527960	      1.02233937	     -9.85344645	     -4.69233005	    -22.72615604	    -13.80623015	     -0.24096417	     10.59063202	      7.48259352	    -14.26261168	     26.04042876	      3.50929593	     20.30163718	     -9.76742022	     -0.17047364	     -2.60616622	      0.68857988	      1.56557697	     -3.31169809	     -4.89835523	     11.32435683	     16.59385791	    -15.57657357	    -13.65629483	     31.73738302	     89.95437384	      0.00000000	      0.00000000	    -17.37525932	     13.52679988	     11.72821065	      4.93703919	     89.95437384	      0.00000000	      0.00000000
      0.10000000	     -1.68169323	      1.91109769	    -10.02842810	     -0.72875120	      0.94430326	      1.02175441	    -10.35816565	     -5.21140407	    -22.58965983	    -14.24181025	     -0.24856648	     10.34969418	      7.56249660	    -14.10711165	     25.92944232	      3.44120463	     20.14400254	    -10.53154752	     -0.18381018	     -2.34380954	      1.35305067	      1.52019254	     -3.21619397	     -5.06377051	     11.50943919	     16.33443387	    -15.38649641	    -13.86267489	     32.08703898	     89.95437384	      0.00000000	      0.00000000	    -17.40457749	     13.34846866	     11.59229055	      5.05680472	     89.95437384	      0.00000000	      0.00000000
      0.11000000	     -1.86362400	      1.92814158	    -10.09972786	     -0.71784860	      0.94297634	      1.02075406	    -10.56589636	     -5.52872655	    -22.19794971	    -14.82924769	     -0.25881920	     10.04999892	      7.30538887	    -13.80550658	     25.95967567	      3.44532672	     19.72638933	    -11.11695218	     -0.19402742	     -2.40409585	      1.39372153	      1.49905225	     -2.85482567	     -5.00998399	     11.44029341	     16.04588005	    -15.21823965	    -13.80323156	     32.37620431	     89.95437384	      0.00000000	      0.00000000	    -17.64925649	     13.09562316	     11.52604362	      5.49508391	     89.95437384	      0.00000000	      0.00000000
      0.12000000	     -2.03206121	      1.95284675	    -10.18736851	     -0.70660969	      0.94174562	      1.01963591	    -10.79000492	     -5.87447900	    -21.82548005	    -15.41813086	     -0.26909715	      9.75477105	      7.04508026	    -13.50632419	     25.89166213	      3.42489135	     19.32018648	    -11.76393562	     -0.20531941	     -2.44642845	      1.45594475	      1.47238326	     -2.45929197	     -4.95990142	     11.38289988	     15.67865212	    -15.04705984	    -13.73666624	     32.61681121	     89.95437384	      0.00000000	      0.00000000	    -17.84903509	     12.83458197	     11.46095974	      5.91200713	     89.95437384	      0.00000000	      0.00000000
      0.13000000	     -1.54792596	      2.30821131	    -10.43943457	     -0.69489987	      0.94144962	      1.01841082	    -11.70990641	     -6.83667875	    -22.00054089	    -15.93448040	     -0.27810915	      9.38483761	      7.20091611	    -13.36673416	     25.25622613	      2.99786783	     19.43295908	    -12.96204929	     -0.22623044	     -1.60681329	      2.47109984	      1.33304899	     -2.70293446	     -5.39548400	     11.56270540	     15.26221706	    -14.93517708	    -13.63360657	     32.87213761	     89.95437384	      0.00000000	      0.00000000	    -17.39305132	     12.62690579	     11.23111689	      5.35460691	     89.95437384	      0.00000000	      0.00000000
      0.14000000	     -0.90991537	      2.99058857	    -10.56740259	     -0.68234223	      0.94137730	      1.01629059	    -12.70681070	     -8.47569697	    -23.09006331	    -16.77817229	     -0.29283435	      8.88292905	      9.67943346	    -13.78705225	     23.76883670	      1.75087528	     18.71627586	    -12.55400607	     -0.21910874	     -1.66223749	      4.01484230	      1.65490529	     -3.00233095	     -6.14566833	     11.44562209	     14.68695683	    -14.80862390	    -13.29148806	     33.37965032	     89.95437384	      0.00000000	      0.00000000	    -17.47612243	     12.38929567	     11.14224087	      5.79227864	     89.95437384	      0.00000000	      0.00000000
      0.15000000	     -0.93394870	      3.06539066	    -10.58236924	     -0.67028928	      0.94040849	      1.01449533	    -13.06826497	     -9.01201778	    -23.04564767	    -17.46852972	     -0.30488336	      8.29519901	      9.49253914	    -13.52689273	     23.60598754	      1.61609022	     19.41945872	    -13.44767177	     -0.23470615	     -2.52379800	      4.54285725	      1.84217698	     -2.67722898	     -6.12984773	     11.29814280	     14.19348675	    -14.69370771	    -13.02794304	     33.42764761	     89.95437384	      0.00000000	      0.00000000	    -17.43049396	     12.09260508	     11.06055463	      5.90628712	     89.95437384	      0.00000000	      0.00000000
      0.16000000	     -0.80460644	      3.26577282	    -10.56394404	     -0.65810664	      0.93985707	      1.01262724	    -13.56919067	     -9.71178032	    -23.01390442	    -18.16149814	     -0.31697794	      7.45981623	      9.50237304	    -13.29157238	     23.23060379	      1.39333737	     20.80792548	    -13.90217746	     -0.24263877	     -4.33958915	      5.17665814	      2.25055143	     -2.51082624	     -6.31132222	     11.05428416	     13.71692413	    -14.49104547	    -12.83899020	     33.45349692	     89.95437384	      0.00000000	      0.00000000	    -17.28590922	     11.81845506	     10.99526333	      5.95366586	     89.95437384	      0.00000000	      0.00000000
